<?xml version="1.0" encoding="utf-8"?>
<!-- Generator: Adobe Illustrator 24.2.3, SVG Export Plug-In . SVG Version: 6.00 Build 0)  -->
<svg version="1.1" id="Capa_1" xmlns="http://www.w3.org/2000/svg" xmlns:xlink="http://www.w3.org/1999/xlink" x="0px" y="0px"
	 viewBox="0 0 26 18" style="enable-background:new 0 0 26 18;" xml:space="preserve">
<style type="text/css">
	.st0{fill:#616161;}
</style>
<g>
	<g>
		<g>
			<path class="st0" d="M22.1,2c1,0,1.9,0.9,1.9,1.9v10.2c0,1-0.9,1.9-1.9,1.9H3.9c-1,0-1.9-0.9-1.9-1.9V3.9C2,2.9,2.9,2,3.9,2H22.1
				 M22.1,0H3.9C1.7,0,0,1.7,0,3.9v10.2C0,16.3,1.7,18,3.9,18h18.2c2.2,0,3.9-1.7,3.9-3.9V3.9C26,1.7,24.3,0,22.1,0L22.1,0z"/>
		</g>
	</g>
	<path class="st0" d="M12.1,6.2l-1.4,3.1L9.4,6.2H7.6v4.4l-2-4.4H4.1l-2,4.6h1.2l0.4-1H6l0.4,1h2.3V7.4l1.5,3.4h1l1.6-3.4v3.4H14
		V6.2H12.1z M4.2,8.8l0.7-1.6l0.7,1.6H4.2z"/>
	<path class="st0" d="M21.9,8.5l2-2.2h-1.4l-1.3,1.4l-1.3-1.4h-4.5v4.6h4.3l1.4-1.5l1.3,1.5h1.4L21.9,8.5z M19.2,9.9h-2.6V9h2.5V8.1
		h-2.5V7.2l2.8,0l1.1,1.3L19.2,9.9z"/>
</g>
</svg>
