<?xml version="1.0" encoding="utf-8"?>
<!-- Generator: Adobe Illustrator 24.2.3, SVG Export Plug-In . SVG Version: 6.00 Build 0)  -->
<svg version="1.1" id="Слой_1" xmlns="http://www.w3.org/2000/svg" xmlns:xlink="http://www.w3.org/1999/xlink" x="0px" y="0px"
	 viewBox="0 0 40.7 24.9" style="enable-background:new 0 0 40.7 24.9;" xml:space="preserve">
<g>
	<path d="M33.9,12.4c0,0.2,0,0.4,0,0.5c-0.1,0.7-0.8,1.1-1.1,1.1c-0.5,0-0.8-0.4-0.8-1c0-0.7,0.4-1.6,1.1-1.6
		C33.7,11.5,33.9,12,33.9,12.4L33.9,12.4z M20,12c0-0.4-0.2-0.6-0.6-0.6s-0.8,0.3-0.9,0.8H20V12z M35.8,14.7c0,0.2-0.1,0.3-0.3,0.3
		c-0.1,0-0.3-0.1-0.3-0.3c0-0.1,0.1-0.3,0.3-0.3C35.7,14.5,35.8,14.6,35.8,14.7L35.8,14.7z M39.5,12.3L39.5,12.3
		c0,6.4-5.2,11.6-11.6,11.6c-3,0-5.7-1.1-7.8-3l0,0l0,0l0,0c0.4-0.4,0.8-0.8,1.2-1.2h-2.4c0.4,0.5,0.8,0.9,1.2,1.3
		c-2.1,1.9-4.8,3-7.8,3C5.9,24,0.7,18.8,0.7,12.4S5.9,0.8,12.2,0.8h0.1c3,0,5.7,1.1,7.8,3c2.1-1.9,4.8-3,7.8-3
		C34.4,0.7,39.5,5.9,39.5,12.3L39.5,12.3z M18.3,6.1h3.9c-0.3-0.4-0.6-0.8-0.9-1.2h-2.2C18.8,5.3,18.5,5.7,18.3,6.1L18.3,6.1z
		 M17,8.6h6.4c-0.1-0.4-0.3-0.8-0.5-1.2h-5.3C17.3,8,17,8.5,17,8.6L17,8.6z M12.8,9.5h-2.2L9.1,13L9,9.5H6.8l-1.1,5.6h1.2l0.8-4.3
		l0.2,4.3h1.2l1.9-4.3l-0.8,4.3h1.4L12.8,9.5z M16.7,11.8c0-0.9-0.6-1.3-1.8-1.3c-0.5,0-0.9,0.1-1.6,0.2l-0.2,1h0.1l0.2-0.1
		c0.3-0.1,0.7-0.1,1.1-0.1c0.6,0,0.9,0.1,0.9,0.4c0,0.1,0,0.1,0,0.3c-0.2,0-0.4,0-0.6,0c-1.5,0-2.4,0.6-2.4,1.8
		c0,0.7,0.5,1.2,1.2,1.2c0.6,0,1.1-0.2,1.4-0.5v0.5h1.1v-0.1v-0.2v-0.2l0.1-0.3l0.3-1.6C16.7,12.2,16.7,12,16.7,11.8L16.7,11.8z
		 M17,13.1c0,1.3,0.8,2,2.3,2c0.5,0,0.9-0.1,1.4-0.2l0.2-1.1c-0.5,0.2-0.9,0.3-1.4,0.3c-0.8,0-1.2-0.3-1.2-0.8v-0.1H21
		c0.1-0.5,0.2-0.8,0.2-1.1c0-1-0.7-1.6-1.9-1.6C18,10.4,17,11.6,17,13.1L17,13.1z M22.9,17.2h-5.5c0.2,0.4,0.4,0.8,0.7,1.2h4.1
		C22.5,18,22.7,17.6,22.9,17.2L22.9,17.2z M25,10.5c-0.4-0.1-0.9-0.1-1.2-0.1c-1.5,0-2.1,0.7-2.1,1.5c0,0.6,0.3,1,1.1,1.3
		c0.6,0.2,0.6,0.3,0.6,0.5c0,0.3-0.2,0.4-0.8,0.4c-0.4,0-0.8-0.1-1.2-0.2L21.2,15h0.1h0.2c0.1,0,0.2,0,0.4,0c0.3,0,0.6,0,0.8,0
		c1.5,0,2.1-0.5,2.1-1.5c0-0.6-0.3-1-1-1.3c-0.6-0.2-0.6-0.3-0.6-0.5s0.2-0.4,0.7-0.4c0.3,0,0.6,0,1,0.1L25,10.5z M26.4,13.7
		c0,0,0-0.1,0-0.2l0.4-1.9h0.7l0.2-1.1H27l0.2-1h-1.4L25.2,13l-0.1,0.4L25,13.8c0,0.1,0,0.3,0,0.4c0,0.6,0.4,1,1.1,1
		c0.3,0,0.6,0,1-0.1l0.2-1c-0.1,0-0.2,0-0.4,0C26.6,14.1,26.4,14,26.4,13.7L26.4,13.7z M30.4,11.8h0.2l0.5-1.3c-0.1,0-0.1,0-0.1-0.1
		c-0.1,0-0.1,0-0.1,0c-0.1,0-0.1,0-0.1,0c-0.4,0-0.8,0.2-1.2,0.7l0.1-0.7h-1.2l-0.8,4.5h1.4c0.5-2.8,0.7-3.3,1.4-3.3
		C30.3,11.8,30.4,11.8,30.4,11.8L30.4,11.8z M35.4,13c0-0.3,0-0.3,0-0.6c0-1.2-0.8-2.1-2.2-2.1c-1.6,0-2.7,1.1-2.7,2.7
		c0,1.2,0.6,2.1,2.2,2.1C34.1,15.2,35.1,14.5,35.4,13L35.4,13z M35.9,14.7c0-0.2-0.2-0.4-0.4-0.4c-0.2,0-0.4,0.2-0.4,0.4
		c0,0.2,0.2,0.4,0.4,0.4S35.9,14.9,35.9,14.7L35.9,14.7z M13.7,13.7c0,0.3,0.2,0.5,0.5,0.5c0.6,0,1-0.5,1-1.1c-0.1,0-0.2,0-0.3,0
		C14.1,13,13.7,13.3,13.7,13.7L13.7,13.7z"/>
	<path d="M35.5,14.6L35.5,14.6L35.5,14.6L35.5,14.6C35.5,14.7,35.5,14.7,35.5,14.6C35.6,14.7,35.6,14.7,35.5,14.6
		C35.6,14.6,35.6,14.6,35.5,14.6L35.5,14.6L35.5,14.6z"/>
	<path d="M35.6,14.7L35.6,14.7c0.1-0.1,0-0.1,0-0.2h-0.1h-0.1v0.3h0.1v-0.1L35.6,14.7v0.1h0.1L35.6,14.7z"/>
</g>
</svg>
