<?xml version="1.0" encoding="utf-8"?>
<!-- Generator: Adobe Illustrator 24.2.3, SVG Export Plug-In . SVG Version: 6.00 Build 0)  -->
<svg version="1.1" id="Слой_1" xmlns="http://www.w3.org/2000/svg" xmlns:xlink="http://www.w3.org/1999/xlink" x="0px" y="0px"
	 viewBox="0 0 38.8 23.2" style="enable-background:new 0 0 38.8 23.2;" xml:space="preserve">
<g>
	<path d="M33.2,11.6c0,0.2,0,0.4,0,0.5c-0.1,0.7-0.8,1.1-1.1,1.1c-0.5,0-0.8-0.4-0.8-1c0-0.7,0.4-1.6,1.1-1.6
		C33,10.7,33.2,11.2,33.2,11.6L33.2,11.6z M19.3,11.2c0-0.4-0.2-0.6-0.6-0.6s-0.8,0.3-0.9,0.8h1.5V11.2z M35.1,13.9
		c0,0.2-0.1,0.3-0.3,0.3c-0.1,0-0.3-0.1-0.3-0.3c0-0.1,0.1-0.3,0.3-0.3C35,13.7,35.1,13.8,35.1,13.9L35.1,13.9z M38.8,11.5
		L38.8,11.5c0,6.4-5.2,11.6-11.6,11.6c-3,0-5.7-1.1-7.8-3l0,0l0,0l0,0c0.4-0.4,0.8-0.8,1.2-1.2h-2.4c0.4,0.5,0.8,0.9,1.2,1.3
		c-2.1,1.9-4.8,3-7.8,3C5.2,23.2,0,18,0,11.6S5.2,0,11.5,0h0.1c3,0,5.7,1.1,7.8,3c2.1-1.9,4.8-3,7.8-3C33.7-0.1,38.8,5.1,38.8,11.5
		L38.8,11.5z M17.6,5.3h3.9c-0.3-0.4-0.6-0.8-0.9-1.2h-2.2C18.1,4.5,17.8,4.9,17.6,5.3L17.6,5.3z M16.3,7.8h6.4
		c-0.1-0.4-0.3-0.8-0.5-1.2h-5.3C16.6,7.2,16.3,7.7,16.3,7.8L16.3,7.8z M12.1,8.7H9.9l-1.5,3.5L8.3,8.7H6.1L5,14.3h1.2L7,10l0.2,4.3
		h1.2l1.9-4.3l-0.8,4.3h1.4L12.1,8.7z M16,11c0-0.9-0.6-1.3-1.8-1.3c-0.5,0-0.9,0.1-1.6,0.2l-0.2,1h0.1l0.2-0.1
		c0.3-0.1,0.7-0.1,1.1-0.1c0.6,0,0.9,0.1,0.9,0.4c0,0.1,0,0.1,0,0.3c-0.2,0-0.4,0-0.6,0c-1.5,0-2.4,0.6-2.4,1.8
		c0,0.7,0.5,1.2,1.2,1.2c0.6,0,1.1-0.2,1.4-0.5v0.5h1.1v-0.1v-0.2v-0.2l0.1-0.3l0.3-1.6C16,11.4,16,11.2,16,11L16,11z M16.3,12.3
		c0,1.3,0.8,2,2.3,2c0.5,0,0.9-0.1,1.4-0.2l0.2-1.1c-0.5,0.2-0.9,0.3-1.4,0.3c-0.8,0-1.2-0.3-1.2-0.8v-0.1h2.7
		c0.1-0.5,0.2-0.8,0.2-1.1c0-1-0.7-1.6-1.9-1.6C17.3,9.6,16.3,10.8,16.3,12.3L16.3,12.3z M22.2,16.4h-5.5c0.2,0.4,0.4,0.8,0.7,1.2
		h4.1C21.8,17.2,22,16.8,22.2,16.4L22.2,16.4z M24.3,9.7c-0.4-0.1-0.9-0.1-1.2-0.1c-1.5,0-2.1,0.7-2.1,1.5c0,0.6,0.3,1,1.1,1.3
		c0.6,0.2,0.6,0.3,0.6,0.5c0,0.3-0.2,0.4-0.8,0.4c-0.4,0-0.8-0.1-1.2-0.2l-0.2,1.1h0.1h0.2c0.1,0,0.2,0,0.4,0c0.3,0,0.6,0,0.8,0
		c1.5,0,2.1-0.5,2.1-1.5c0-0.6-0.3-1-1-1.3c-0.6-0.2-0.6-0.3-0.6-0.5s0.2-0.4,0.7-0.4c0.3,0,0.6,0,1,0.1L24.3,9.7z M25.7,12.9
		c0,0,0-0.1,0-0.2l0.4-1.9h0.7L27,9.7h-0.7l0.2-1h-1.4l-0.6,3.5l-0.1,0.4L24.3,13c0,0.1,0,0.3,0,0.4c0,0.6,0.4,1,1.1,1
		c0.3,0,0.6,0,1-0.1l0.2-1c-0.1,0-0.2,0-0.4,0C25.9,13.3,25.7,13.2,25.7,12.9L25.7,12.9z M29.7,11h0.2l0.5-1.3c-0.1,0-0.1,0-0.1-0.1
		c-0.1,0-0.1,0-0.1,0c-0.1,0-0.1,0-0.1,0c-0.4,0-0.8,0.2-1.2,0.7L29,9.6h-1.2L27,14.1h1.4c0.5-2.8,0.7-3.3,1.4-3.3
		C29.6,11,29.7,11,29.7,11L29.7,11z M34.7,12.2c0-0.3,0-0.3,0-0.6c0-1.2-0.8-2.1-2.2-2.1c-1.6,0-2.7,1.1-2.7,2.7
		c0,1.2,0.6,2.1,2.2,2.1C33.4,14.4,34.4,13.7,34.7,12.2L34.7,12.2z M35.2,13.9c0-0.2-0.2-0.4-0.4-0.4s-0.4,0.2-0.4,0.4
		s0.2,0.4,0.4,0.4S35.2,14.1,35.2,13.9L35.2,13.9z M13,12.9c0,0.3,0.2,0.5,0.5,0.5c0.6,0,1-0.5,1-1.1c-0.1,0-0.2,0-0.3,0
		C13.4,12.2,13,12.5,13,12.9L13,12.9z"/>
	<path d="M34.8,13.8L34.8,13.8L34.8,13.8L34.8,13.8C34.8,13.9,34.8,13.9,34.8,13.8C34.9,13.9,34.9,13.9,34.8,13.8
		C34.9,13.8,34.9,13.8,34.8,13.8L34.8,13.8L34.8,13.8z"/>
	<path d="M34.9,13.9L34.9,13.9c0.1-0.1,0-0.1,0-0.2h-0.1h-0.1V14h0.1L34.9,13.9L34.9,13.9V14H35L34.9,13.9z"/>
</g>
</svg>
